HIERARCHY
ROOT Hips
{
	OFFSET 0.000000 0.000000 0.000000
	CHANNELS 6 Xposition Yposition Zposition Zrotation Yrotation Xrotation 
	JOINT LHipJoint
	{
		OFFSET 0.000000 0.000000 0.000000
		CHANNELS 3 Zrotation Yrotation Xrotation
		JOINT LeftUpLeg
		{
			OFFSET 1.363060 -1.794630 0.839290
			CHANNELS 3 Zrotation Yrotation Xrotation
			JOINT LeftLeg
			{
				OFFSET 2.448110 -6.726130 0.000000
				CHANNELS 3 Zrotation Yrotation Xrotation
				JOINT LeftFoot
				{
					OFFSET 2.562200 -7.039590 0.000000
					CHANNELS 3 Zrotation Yrotation Xrotation
					JOINT LeftToeBase
					{
						OFFSET 0.157640 -0.433110 2.322550
						CHANNELS 3 Zrotation Yrotation Xrotation
						End Site
						{
							OFFSET 0.000000 0.000000 0.000000
						}
					}
				}
			}
		}
	}
	JOINT RHipJoint
	{
		OFFSET 0.000000 0.000000 0.000000
		CHANNELS 3 Zrotation Yrotation Xrotation
		JOINT RightUpLeg
		{
			OFFSET -1.305520 -1.794630 0.839290
			CHANNELS 3 Zrotation Yrotation Xrotation
			JOINT RightLeg
			{
				OFFSET -2.542530 -6.985550 0.000000
				CHANNELS 3 Zrotation Yrotation Xrotation
				JOINT RightFoot
				{
					OFFSET -2.568260 -7.056230 0.000000
					CHANNELS 3 Zrotation Yrotation Xrotation
					JOINT RightToeBase
					{
						OFFSET -0.164730 -0.452590 2.363150
						CHANNELS 3 Zrotation Yrotation Xrotation
						End Site
						{
							OFFSET 0.000000 0.000000 0.000000
						}
					}
				}
			}
		}
	}
	JOINT LowerBack
	{
		OFFSET 0.000000 0.000000 0.000000
		CHANNELS 3 Zrotation Yrotation Xrotation
		JOINT Spine
		{
			OFFSET 0.028270 2.035590 -0.193380
			CHANNELS 3 Zrotation Yrotation Xrotation
			JOINT Spine1
			{
				OFFSET 0.056720 2.048850 -0.042750
				CHANNELS 3 Zrotation Yrotation Xrotation
				JOINT Neck
				{
					OFFSET 0.000000 0.000000 0.000000
					CHANNELS 3 Zrotation Yrotation Xrotation
					JOINT Neck1
					{
						OFFSET -0.054170 1.746240 0.172020
						CHANNELS 3 Zrotation Yrotation Xrotation
						JOINT Head
						{
							OFFSET 0.104070 1.761360 -0.123970
							CHANNELS 3 Zrotation Yrotation Xrotation
							End Site
							{
								OFFSET 0.000000 0.000000 0.000000
							}
						}
					}
				}
				JOINT LeftShoulder
				{
					OFFSET 0.000000 0.000000 0.000000
					CHANNELS 3 Zrotation Yrotation Xrotation
					JOINT LeftArm
					{
						OFFSET 3.362410 1.200890 -0.311210
						CHANNELS 3 Zrotation Yrotation Xrotation
						JOINT LeftForeArm
						{
							OFFSET 4.983000 -0.000000 -0.000000
							CHANNELS 3 Zrotation Yrotation Xrotation
							JOINT LeftHand
							{
								OFFSET 3.483560 -0.000000 -0.000000
								CHANNELS 3 Zrotation Yrotation Xrotation
								JOINT LeftFingerBase
								{
									OFFSET 0.000000 0.000000 0.000000
									CHANNELS 3 Zrotation Yrotation Xrotation
									JOINT LeftHandIndex1
									{
										OFFSET 0.715260 -0.000000 -0.000000
										CHANNELS 3 Zrotation Yrotation Xrotation
										End Site
										{
											OFFSET 0.000000 0.000000 0.000000
										}
									}
								}
								JOINT LThumb
								{
									OFFSET 0.000000 0.000000 0.000000
									CHANNELS 3 Zrotation Yrotation Xrotation
									End Site
									{
										OFFSET 0.000000 0.000000 0.000000
									}
								}
							}
						}
					}
				}
				JOINT RightShoulder
				{
					OFFSET 0.000000 0.000000 0.000000
					CHANNELS 3 Zrotation Yrotation Xrotation
					JOINT RightArm
					{
						OFFSET -3.136600 1.374050 -0.404650
						CHANNELS 3 Zrotation Yrotation Xrotation
						JOINT RightForeArm
						{
							OFFSET -5.241900 -0.000000 -0.000000
							CHANNELS 3 Zrotation Yrotation Xrotation
							JOINT RightHand
							{
								OFFSET -3.444170 -0.000000 -0.000000
								CHANNELS 3 Zrotation Yrotation Xrotation
								JOINT RightFingerBase
								{
									OFFSET 0.000000 0.000000 0.000000
									CHANNELS 3 Zrotation Yrotation Xrotation
									JOINT RightHandIndex1
									{
										OFFSET -0.622530 -0.000000 -0.000000
										CHANNELS 3 Zrotation Yrotation Xrotation
										End Site
										{
											OFFSET 0.000000 0.000000 0.000000
										}
									}
								}
								JOINT RThumb
								{
									OFFSET 0.000000 0.000000 0.000000
									CHANNELS 3 Zrotation Yrotation Xrotation
									End Site
									{
										OFFSET 0.000000 0.000000 0.000000
									}
								}
							}
						}
					}
				}
			}
		}
	}
}
MOTION
Frames: 12
Frame Time: 0.008333
0.251433 18.438174 9.774242 -11.091590 -1.402561 14.340332 6.027155 5.685642 0.039065 -24.083981 -56.859084 32.797644 -4.435575 -2.468886 -3.289207 -3.760979 38.387755 -55.001174 2.245600 9.360000 26.928000 0.730642 -3.980195 0.839426 23.925293 21.590725 -4.281480 3.324992 -1.821501 5.983718 4.683924 -16.026519 0.365455 -0.000200 0.093500 -0.256800 -3.033610 0.789013 0.487520 24.829173 4.810826 -11.858528 -10.927869 -1.598183 -9.567898 -16.135958 -8.785064 -21.925033 15.652403 -13.452877 42.934156 3.002700 -4.041000 12.617600 -6.637627 -6.931355 1.778214 -96.750429 -32.310576 69.824581 122.768043 -54.780637 -92.592140 -1.289751 0.117950 26.552263 59.705097 -27.299391 -37.603800 -7.125000 0.000000 0.000000 17.586200 -12.527200 -21.912500 8.497143 7.909681 9.739783 72.208985 58.874880 60.087112 -126.026259 49.393030 -95.127511 -1.826652 2.138782 40.577847 -33.486284 -23.139478 13.853100 7.125000 0.000000 0.000000 -1.474800 -57.910800 0.466100 
0.249535 18.437542 9.779197 -11.009496 -1.710850 14.503392 5.955252 5.673433 0.024964 -24.568718 -57.118590 33.327529 -4.455154 -2.458080 -3.276552 -3.281940 38.238043 -55.885936 2.344800 9.550200 27.532000 0.702288 -3.973882 0.771271 23.808104 21.741165 -4.313159 3.325108 -1.809409 5.929423 4.626949 -15.891797 0.533504 -0.000100 0.075000 -0.206200 -2.948264 0.778719 0.614026 24.482653 4.847280 -12.388765 -10.839892 -1.593182 -9.505805 -15.928579 -8.865934 -21.949581 15.437031 -13.584963 43.184618 2.894800 -4.118800 12.701000 -6.629783 -6.943106 1.861227 -96.747822 -32.297368 70.121754 122.487062 -54.915208 -92.335037 -1.242535 0.229608 26.671124 62.488262 -28.924594 -42.529000 -7.125000 0.000000 0.000000 18.549900 -16.826800 -24.192500 8.547908 7.954789 9.666642 71.612002 58.658019 59.009142 -125.853551 49.352353 -95.095862 -1.769981 2.212061 40.443512 -33.313840 -21.583077 12.993500 7.125000 0.000000 0.000000 -1.647100 -56.216400 0.453200 
0.247216 18.437436 9.782676 -10.979782 -1.934728 14.634212 5.924092 5.653589 -0.013105 -24.619276 -57.082838 33.328480 -4.464776 -2.440232 -3.244449 -3.147301 38.243873 -56.169186 2.384100 9.624100 27.767900 0.684302 -3.970820 0.720045 23.751465 21.819821 -4.340152 3.326214 -1.787620 5.852488 4.578005 -15.788182 0.728986 -0.000200 0.091800 -0.252200 -2.892452 0.750670 0.758673 24.333920 4.867468 -12.868772 -10.810758 -1.615123 -9.479212 -15.855574 -8.928318 -21.840829 15.369711 -13.718789 43.293679 2.844000 -4.188900 12.740700 -6.621263 -6.969577 1.936495 -96.797362 -32.291728 70.353907 122.035914 -55.079511 -91.995534 -1.225232 0.272895 27.038301 63.769646 -29.233403 -44.439600 -7.125000 0.000000 0.000000 19.139100 -18.294600 -25.338200 8.574948 8.021550 9.567902 70.868824 58.353553 58.642415 -126.446537 49.012378 -95.475599 -1.873037 2.109370 40.088266 -33.504742 -24.070957 14.331800 7.125000 0.000000 0.000000 -1.222800 -58.940700 0.416700 
0.245951 18.437436 9.786576 -11.052216 -2.070427 14.728655 5.954371 5.639596 -0.050733 -24.454218 -56.930809 33.121772 -4.469713 -2.425963 -3.206445 -3.203095 38.332537 -56.123758 2.372400 9.602100 27.697600 0.706751 -3.963671 0.701604 23.771925 21.757073 -4.409801 3.325298 -1.770742 5.790596 4.515388 -15.656733 0.955966 -0.000800 0.180400 -0.495500 -2.944691 0.658761 0.794745 24.690812 4.829046 -13.110109 -10.886161 -1.707844 -9.462168 -15.981880 -8.955363 -21.673249 15.452427 -13.786278 43.204134 2.876000 -4.224800 12.738200 -6.616169 -6.996120 1.957345 -96.877574 -32.283304 70.465863 121.891558 -55.115174 -91.894165 -1.228568 0.267423 27.028219 63.817050 -29.026894 -44.294400 -7.125000 0.000000 0.000000 19.235100 -18.070900 -25.433100 8.495427 8.069917 9.511016 70.505235 58.232447 58.458505 -126.651872 48.856229 -95.616100 -1.909646 2.070516 40.038649 -33.484495 -25.058498 14.801900 7.125000 0.000000 0.000000 -0.901400 -59.988700 0.329700 
0.244791 18.437436 9.791531 -11.169838 -2.198410 14.833531 5.984095 5.626308 -0.087833 -24.338747 -56.873936 33.057188 -4.475008 -2.416809 -3.191867 -3.180655 38.360330 -56.198774 2.380900 9.618000 27.748500 0.727375 -3.957244 0.672013 23.861610 21.751558 -4.450087 3.322493 -1.769439 5.771290 4.450914 -15.514269 1.107450 -0.000700 0.176500 -0.484900 -2.933923 0.595025 0.854824 25.023165 4.843335 -13.447264 -10.979920 -1.787940 -9.425309 -16.000052 -8.943089 -21.510741 15.430942 -13.782431 43.153691 2.879500 -4.231800 12.741600 -6.614331 -7.021534 1.988071 -96.953747 -32.189883 70.590996 121.842828 -55.114513 -91.861853 -1.229279 0.266201 26.883428 63.875986 -29.034171 -44.377400 -7.125000 0.000000 0.000000 19.265400 -18.130700 -25.489300 8.412209 8.132090 9.446227 70.248117 57.975750 58.254136 -126.715236 48.781120 -95.670035 -1.917967 2.065191 40.196808 -33.426056 -25.319293 14.890400 7.125000 0.000000 0.000000 -0.745900 -60.244100 0.277400 
0.243315 18.437647 9.795853 -11.339052 -2.326819 14.930946 6.036532 5.611359 -0.130275 -24.199822 -56.814779 33.020848 -4.482130 -2.416207 -3.192344 -3.096974 38.304637 -56.333471 2.422200 9.695100 27.994800 0.768305 -3.953746 0.637847 24.001610 21.824123 -4.455544 3.317598 -1.785677 5.793918 4.383635 -15.361345 1.191384 -0.000100 0.073500 -0.202000 -2.993675 0.535320 0.977149 25.576607 4.896067 -13.855352 -11.082517 -1.888810 -9.406426 -15.837575 -8.861635 -21.311487 15.081337 -13.603321 43.112178 2.804200 -4.196600 12.723000 -6.630627 -7.043799 2.018487 -97.060640 -32.083775 70.524880 121.502042 -55.210357 -91.613799 -1.226754 0.282553 27.244996 64.305229 -29.017989 -44.912800 -7.125000 0.000000 0.000000 19.507500 -18.479200 -25.912600 8.258269 8.204657 9.397331 70.161345 57.671037 58.278683 -126.787329 48.722097 -95.726105 -1.922509 2.058382 40.298319 -33.362131 -25.454784 14.914600 7.125000 0.000000 0.000000 -0.628700 -60.361400 0.235500 
0.243526 18.437331 9.799438 -11.456471 -2.388441 14.993274 6.088237 5.598224 -0.169596 -24.165553 -56.784575 33.036322 -4.489230 -2.415500 -3.184625 -3.034847 38.309243 -56.466362 2.455600 9.756800 28.192600 0.814808 -3.951117 0.615933 24.072020 21.860197 -4.466110 3.314720 -1.796986 5.803849 4.333406 -15.247503 1.251683 -0.000100 -0.071000 0.195200 -3.099603 0.418500 1.070195 26.194265 4.863469 -14.140051 -11.156638 -2.026794 -9.423358 -15.787364 -8.780382 -21.149638 14.776153 -13.405571 43.056399 2.762000 -4.155400 12.708500 -6.644875 -7.057861 2.022895 -97.152937 -32.026187 70.335550 121.247791 -55.278981 -91.424457 -1.223787 0.298407 27.462518 64.650907 -29.127248 -45.471800 -7.125000 0.000000 0.000000 19.662600 -18.919900 -26.227800 8.094625 8.245899 9.390960 70.328124 57.505068 58.584820 -126.817978 48.714453 -95.742985 -1.922036 2.053242 40.356533 -33.396000 -25.424714 14.916400 7.125000 0.000000 0.000000 -0.685700 -60.328200 0.256400 
0.246161 18.437120 9.802389 -11.472656 -2.448581 15.056159 6.099320 5.579690 -0.213700 -24.295286 -56.808810 33.138484 -4.496602 -2.404588 -3.167961 -3.069492 38.559196 -56.596981 2.439500 9.727000 28.097300 0.825299 -3.950578 0.585875 24.057269 21.903132 -4.488633 3.314470 -1.799742 5.790596 4.312711 -15.208404 1.316563 -0.000100 -0.077500 0.213100 -3.065846 0.342688 1.195923 26.407140 4.845746 -14.488442 -11.201889 -2.112780 -9.428654 -15.968916 -8.772658 -21.038760 14.824609 -13.388836 43.059355 2.813800 -4.156100 12.741700 -6.629824 -7.071775 2.047572 -97.246348 -31.981351 70.300829 121.200080 -55.285378 -91.385453 -1.218499 0.310015 27.367252 64.907008 -29.373184 -46.053700 -7.125000 0.000000 0.000000 19.719800 -19.460600 -26.417700 8.039602 8.274266 9.377372 70.387008 57.324596 58.718277 -126.851104 48.707803 -95.760284 -1.924843 2.049015 40.475664 -33.454273 -25.485279 14.975100 7.125000 0.000000 0.000000 -0.737800 -60.400100 0.277100 
0.248797 18.437120 9.805236 -11.495482 -2.599823 15.087078 6.097317 5.569804 -0.231526 -24.396967 -56.751445 33.218482 -4.506400 -2.393410 -3.149881 -3.165121 38.910531 -56.685753 2.391300 9.637600 27.811000 0.814088 -3.951887 0.565159 24.080498 21.958222 -4.510801 3.309992 -1.815532 5.819918 4.295222 -15.178509 1.425490 -0.000800 0.182700 -0.501900 -2.941000 0.344976 1.269584 26.373233 4.876092 -14.688300 -11.244283 -2.128000 -9.431607 -15.975798 -8.819243 -21.099264 14.781790 -13.443905 43.186087 2.796700 -4.184800 12.812800 -6.621174 -7.075346 2.079813 -97.365522 -32.012500 70.477754 121.089371 -55.320376 -91.308238 -1.221745 0.301822 27.286721 64.921675 -29.174478 -45.874800 -7.125000 0.000000 0.000000 19.795500 -19.220500 -26.482800 8.039060 8.300361 9.346455 70.300249 57.160908 58.602559 -126.846718 48.707732 -95.757034 -1.925710 2.050652 40.743828 -33.350809 -25.616725 14.972800 7.125000 0.000000 0.000000 -0.569700 -60.501500 0.215300 
0.251433 18.436909 9.808504 -11.547001 -2.779242 15.068971 6.117560 5.573904 -0.220133 -24.508685 -56.644180 33.337011 -4.518682 -2.396262 -3.139493 -3.163908 39.099584 -56.832577 2.360700 9.580200 27.627600 0.826103 -3.952331 0.567464 24.110917 21.990910 -4.522362 3.301972 -1.843518 5.888920 4.256780 -15.088248 1.539937 -0.003100 0.359800 -0.988700 -2.959135 0.318986 1.232070 26.581310 4.858709 -14.633659 -11.264652 -2.166468 -9.468378 -15.791692 -8.838115 -21.291449 14.471192 -13.396995 43.439926 2.701400 -4.188200 12.919900 -6.642607 -7.070231 2.084996 -97.505224 -32.069477 70.561551 120.869554 -55.397835 -91.146999 -1.224626 0.298818 27.241909 65.038326 -29.068116 -45.919000 -7.125000 0.000000 0.000000 19.898200 -19.183600 -26.627200 7.978547 8.322443 9.323317 70.327053 57.063332 58.620232 -126.780570 48.743722 -95.703925 -1.921672 2.055335 41.098562 -33.301534 -25.662519 14.959600 7.125000 0.000000 0.000000 -0.496900 -60.523600 0.188100 
0.256177 18.436382 9.811667 -11.543696 -2.936918 15.062944 6.130122 5.577579 -0.209125 -24.839503 -56.686917 33.667687 -4.532381 -2.403308 -3.127642 -2.969335 39.115107 -57.218885 2.373900 9.605000 27.706700 0.853096 -3.950573 0.568079 24.038263 22.015622 -4.545454 3.296461 -1.865987 5.938527 4.210823 -14.970777 1.624200 -0.002700 0.333700 -0.916800 -3.079598 0.258455 1.170639 26.901156 4.817576 -14.619530 -11.267103 -2.228998 -9.496338 -15.802610 -8.830563 -21.364928 14.408259 -13.378915 43.676640 2.703400 -4.179800 13.037200 -6.654703 -7.080981 2.091451 -97.644759 -32.067210 70.491097 120.668843 -55.467065 -90.990703 -1.215689 0.323142 27.275409 65.525855 -29.503303 -46.998800 -7.125000 0.000000 0.000000 20.021800 -20.171200 -27.001200 7.903154 8.357179 9.281466 70.156536 56.972382 58.526684 -126.718892 48.732509 -95.667836 -1.918696 2.061640 41.215383 -33.347481 -25.611879 14.960500 7.125000 0.000000 0.000000 -0.565400 -60.482500 0.213500 
0.262818 18.436171 9.814408 -11.472557 -3.097785 15.098751 6.109476 5.570468 -0.212410 -25.346688 -56.873257 34.155571 -4.545018 -2.399440 -3.092595 -2.619325 38.980967 -57.786006 2.445400 9.738000 28.132300 0.865405 -3.948378 0.546931 23.891439 22.048680 -4.580052 3.293816 -1.881639 5.960130 4.180629 -14.896395 1.706290 -0.002300 0.307800 -0.845700 -3.138702 0.228828 1.200043 27.010376 4.831265 -14.843666 -11.275159 -2.260015 -9.468312 -16.022731 -8.837278 -21.165443 14.506069 -13.378199 43.473493 2.758200 -4.191900 12.975600 -6.639258 -7.107001 2.116755 -97.741587 -32.038987 70.453841 120.535833 -55.503970 -90.891520 -1.212907 0.332911 27.237572 65.739479 -29.671138 -47.451600 -7.125000 0.000000 0.000000 20.083800 -20.576200 -27.169600 7.874585 8.389301 9.233758 69.767935 56.913126 58.148654 -126.656333 48.683932 -95.648399 -1.916248 2.070936 41.038366 -33.456888 -25.448687 14.950600 7.125000 0.000000 0.000000 -0.741200 -60.354100 0.277600 
